<svg width="48" height="48" viewBox="0 0 24 24" fill="#D4AF37" xmlns="http://www.w3.org/2000/svg">
  <path d="M20.52 3.48a12.07 12.07 0 00-17.04 0c-4.68 4.68-4.8 12.24-.36 17.1L2 22l1.44-.12a12.2 12.2 0 005.52-1.8c4.32 1.32 9.12.12 12.36-3.12a12.07 12.07 0 000-17.04zM7.44 16.92l-.48.24-2.04.48.48-2.04.24-.48a8.6 8.6 0 01-1.68-5.04c0-4.8 3.96-8.76 8.76-8.76 4.8 0 8.76 3.96 8.76 8.76 0 4.8-3.96 8.76-8.76 8.76a8.6 8.6 0 01-5.04-1.68zm8.28-5.52c-.12-.12-.24-.24-.36-.36-.12-.12-.48-.24-.72-.36-.24-.12-.36-.24-.6-.24-.24 0-.36.12-.48.36s-.6.72-.72.84c-.12.12-.24.12-.48 0a6.58 6.58 0 01-1.44-1.08 6.58 6.58 0 01-1.08-1.44c-.12-.24-.12-.36 0-.48s.48-.6.72-.72.24-.24.36-.48c0-.24 0-.48-.12-.72s-.48-.36-.72-.48c-.24-.12-.48 0-.6 0a1.83 1.83 0 00-1.08.84c-.24.48-.48 1.32-.12 2.16s1.08 1.92 2.04 2.88c1.32 1.32 2.64 2.04 4.08 2.04.48 0 .96-.12 1.32-.24.48-.24.84-.48.96-.84s.12-.72 0-.96c-.12-.24-.36-.36-.48-.48z"/>
</svg>
